<mxfile host="app.diagrams.net" modified="2020-12-17T09:16:45.157Z" agent="5.0 (Windows NT 10.0; WOW64) AppleWebKit/537.36 (KHTML, like Gecko) Chrome/78.0.3904.108 Safari/537.36" etag="wy89SKZiKDrQSconNE9y" version="14.0.4" type="github">
  <diagram id="C5RBs43oDa-KdzZeNtuy" name="Page-1">
    <mxGraphModel dx="2203" dy="754" grid="1" gridSize="10" guides="1" tooltips="1" connect="1" arrows="1" fold="1" page="1" pageScale="1" pageWidth="827" pageHeight="1169" math="0" shadow="0">
      <root>
        <mxCell id="WIyWlLk6GJQsqaUBKTNV-0" />
        <mxCell id="WIyWlLk6GJQsqaUBKTNV-1" parent="WIyWlLk6GJQsqaUBKTNV-0" />
        <mxCell id="DGnulBIYxPamp8fvlk8m-5" value="" style="edgeStyle=orthogonalEdgeStyle;rounded=0;orthogonalLoop=1;jettySize=auto;html=1;dashed=1;shape=link;" edge="1" parent="WIyWlLk6GJQsqaUBKTNV-1" source="WIyWlLk6GJQsqaUBKTNV-3">
          <mxGeometry relative="1" as="geometry">
            <mxPoint x="360" y="100" as="targetPoint" />
          </mxGeometry>
        </mxCell>
        <mxCell id="DGnulBIYxPamp8fvlk8m-7" value="" style="edgeStyle=orthogonalEdgeStyle;rounded=0;orthogonalLoop=1;jettySize=auto;html=1;" edge="1" parent="WIyWlLk6GJQsqaUBKTNV-1" source="WIyWlLk6GJQsqaUBKTNV-3" target="DGnulBIYxPamp8fvlk8m-6">
          <mxGeometry relative="1" as="geometry" />
        </mxCell>
        <mxCell id="WIyWlLk6GJQsqaUBKTNV-3" value="&lt;div&gt;&lt;font style=&quot;font-size: 20px&quot;&gt;2016年维族表型原始数据（n=28687）&lt;/font&gt;&lt;/div&gt;" style="rounded=1;whiteSpace=wrap;html=1;fontSize=12;glass=0;strokeWidth=1;shadow=0;" parent="WIyWlLk6GJQsqaUBKTNV-1" vertex="1">
          <mxGeometry x="-120" y="80" width="400" height="40" as="geometry" />
        </mxCell>
        <mxCell id="LJoancdot-fSf0uNtbPZ-0" value="&lt;div&gt;大于14岁成人数据库（28687例）.dta&lt;/div&gt;" style="shape=dataStorage;whiteSpace=wrap;html=1;fixedSize=1;size=0;" parent="WIyWlLk6GJQsqaUBKTNV-1" vertex="1">
          <mxGeometry x="360" y="80" width="210" height="40" as="geometry" />
        </mxCell>
        <mxCell id="DGnulBIYxPamp8fvlk8m-11" value="" style="edgeStyle=orthogonalEdgeStyle;rounded=0;orthogonalLoop=1;jettySize=auto;html=1;shape=link;dashed=1;" edge="1" parent="WIyWlLk6GJQsqaUBKTNV-1" source="DGnulBIYxPamp8fvlk8m-6" target="DGnulBIYxPamp8fvlk8m-10">
          <mxGeometry relative="1" as="geometry" />
        </mxCell>
        <mxCell id="DGnulBIYxPamp8fvlk8m-13" value="" style="edgeStyle=orthogonalEdgeStyle;rounded=0;orthogonalLoop=1;jettySize=auto;html=1;" edge="1" parent="WIyWlLk6GJQsqaUBKTNV-1" source="DGnulBIYxPamp8fvlk8m-6" target="DGnulBIYxPamp8fvlk8m-12">
          <mxGeometry relative="1" as="geometry" />
        </mxCell>
        <mxCell id="DGnulBIYxPamp8fvlk8m-6" value="&lt;p class=&quot;MsoNormal&quot; align=&quot;center&quot; style=&quot;line-height: 16pt&quot;&gt;&lt;font style=&quot;font-size: 20px&quot;&gt;整理变量名称&lt;/font&gt;&lt;span lang=&quot;EN-US&quot; style=&quot;font-size: 7.5pt ; font-family: &amp;#34;times new roman&amp;#34; , serif ; color: #00b0f0&quot;&gt;&lt;/span&gt;&lt;/p&gt;" style="rhombus;whiteSpace=wrap;html=1;rounded=1;shadow=0;strokeWidth=1;glass=0;" vertex="1" parent="WIyWlLk6GJQsqaUBKTNV-1">
          <mxGeometry x="2.5" y="200" width="155" height="100" as="geometry" />
        </mxCell>
        <mxCell id="DGnulBIYxPamp8fvlk8m-10" value="&lt;p class=&quot;MsoNormal&quot; style=&quot;line-height: 16.0pt&quot;&gt;&lt;span style=&quot;font-size: 7.5pt&quot;&gt;原始字段关系（太乱，待整理）&lt;/span&gt;&lt;span lang=&quot;EN-US&quot; style=&quot;font-size: 7.5pt ; font-family: &amp;#34;times new roman&amp;#34; , serif&quot;&gt;.txt&lt;/span&gt;&lt;/p&gt;&lt;p class=&quot;MsoNormal&quot; style=&quot;line-height: 16.0pt&quot;&gt;&lt;span style=&quot;font-size: 7.5pt&quot;&gt;字段对应（整理完毕）&lt;/span&gt;&lt;span lang=&quot;EN-US&quot; style=&quot;font-size: 7.5pt ; font-family: &amp;#34;times new roman&amp;#34; , serif&quot;&gt;.xlsx&lt;/span&gt;&lt;/p&gt;" style="whiteSpace=wrap;html=1;rounded=1;shadow=0;strokeWidth=1;glass=0;" vertex="1" parent="WIyWlLk6GJQsqaUBKTNV-1">
          <mxGeometry x="255" y="220" width="285" height="60" as="geometry" />
        </mxCell>
        <mxCell id="DGnulBIYxPamp8fvlk8m-15" value="" style="edgeStyle=orthogonalEdgeStyle;rounded=0;orthogonalLoop=1;jettySize=auto;html=1;shape=link;dashed=1;" edge="1" parent="WIyWlLk6GJQsqaUBKTNV-1" source="DGnulBIYxPamp8fvlk8m-12" target="DGnulBIYxPamp8fvlk8m-14">
          <mxGeometry relative="1" as="geometry" />
        </mxCell>
        <mxCell id="DGnulBIYxPamp8fvlk8m-17" value="" style="edgeStyle=orthogonalEdgeStyle;rounded=0;orthogonalLoop=1;jettySize=auto;html=1;" edge="1" parent="WIyWlLk6GJQsqaUBKTNV-1" source="DGnulBIYxPamp8fvlk8m-12" target="DGnulBIYxPamp8fvlk8m-16">
          <mxGeometry relative="1" as="geometry" />
        </mxCell>
        <mxCell id="DGnulBIYxPamp8fvlk8m-12" value="&lt;p class=&quot;MsoNormal&quot; align=&quot;center&quot; style=&quot;line-height: 16pt ; font-size: 20px&quot;&gt;得到明确含义列的原始表型数据（&lt;span lang=&quot;EN-US&quot; style=&quot;font-family: &amp;#34;times new roman&amp;#34; , serif&quot;&gt;n=28687&lt;/span&gt;）&lt;/p&gt;" style="whiteSpace=wrap;html=1;rounded=1;shadow=0;strokeWidth=1;glass=0;" vertex="1" parent="WIyWlLk6GJQsqaUBKTNV-1">
          <mxGeometry x="-80" y="400" width="320" height="50" as="geometry" />
        </mxCell>
        <mxCell id="DGnulBIYxPamp8fvlk8m-14" value="&lt;p class=&quot;MsoNormal&quot; align=&quot;center&quot; style=&quot;line-height: 16pt ; font-size: 20px&quot;&gt;&lt;span style=&quot;font-family: &amp;#34;times new roman&amp;#34; , serif ; font-size: 10px ; text-indent: 10px&quot;&gt;original_data_2016_Uygur_colname.xlsx&lt;/span&gt;&lt;br&gt;&lt;/p&gt;" style="whiteSpace=wrap;html=1;rounded=1;shadow=0;strokeWidth=1;glass=0;" vertex="1" parent="WIyWlLk6GJQsqaUBKTNV-1">
          <mxGeometry x="320" y="400" width="320" height="50" as="geometry" />
        </mxCell>
        <mxCell id="DGnulBIYxPamp8fvlk8m-19" value="" style="edgeStyle=orthogonalEdgeStyle;rounded=0;orthogonalLoop=1;jettySize=auto;html=1;" edge="1" parent="WIyWlLk6GJQsqaUBKTNV-1" source="DGnulBIYxPamp8fvlk8m-16" target="DGnulBIYxPamp8fvlk8m-18">
          <mxGeometry relative="1" as="geometry" />
        </mxCell>
        <mxCell id="DGnulBIYxPamp8fvlk8m-16" value="&lt;p class=&quot;MsoNormal&quot; align=&quot;left&quot; style=&quot;text-align: left ; line-height: 16pt ; font-size: 20px&quot;&gt;&lt;span lang=&quot;EN-US&quot;&gt;&amp;nbsp;&amp;nbsp;&amp;nbsp;删除&lt;/span&gt;编号为空&lt;/p&gt;" style="rhombus;whiteSpace=wrap;html=1;rounded=1;shadow=0;strokeWidth=1;glass=0;" vertex="1" parent="WIyWlLk6GJQsqaUBKTNV-1">
          <mxGeometry x="-5" y="530" width="170" height="80" as="geometry" />
        </mxCell>
        <mxCell id="DGnulBIYxPamp8fvlk8m-18" value="&lt;p class=&quot;MsoNormal&quot; align=&quot;center&quot; style=&quot;line-height: 16pt ; font-size: 20px&quot;&gt;剩余样本（&lt;span lang=&quot;EN-US&quot; style=&quot;font-family: &amp;#34;times new roman&amp;#34; , serif&quot;&gt;n=28633&lt;/span&gt;）&lt;span lang=&quot;EN-US&quot; style=&quot;font-family: &amp;#34;times new roman&amp;#34; , serif&quot;&gt;&lt;/span&gt;&lt;/p&gt;" style="whiteSpace=wrap;html=1;rounded=1;shadow=0;strokeWidth=1;glass=0;" vertex="1" parent="WIyWlLk6GJQsqaUBKTNV-1">
          <mxGeometry x="20" y="700" width="120" height="60" as="geometry" />
        </mxCell>
      </root>
    </mxGraphModel>
  </diagram>
</mxfile>
